<svg xmlns="http://www.w3.org/2000/svg" width="32" height="32" viewBox="0 0 32 32"><defs><style>.a{fill:#fff;}.b{fill:#0077b7;}</style></defs><rect class="a" x="2" y="2" width="28" height="28"/><path class="b" d="M29.11,0H2.89A2.9,2.9,0,0,0,0,2.89V29.11A2.9,2.9,0,0,0,2.89,32H29.11A2.9,2.9,0,0,0,32,29.11V2.89A2.9,2.9,0,0,0,29.11,0ZM9.9,27.63a.83.83,0,0,1-.84.84H5.47a.84.84,0,0,1-.84-.84v-15a.84.84,0,0,1,.84-.84H9.06a.83.83,0,0,1,.84.84ZM7.27,10.34a3.41,3.41,0,1,1,3.4-3.41A3.41,3.41,0,0,1,7.27,10.34ZM28.64,27.7a.77.77,0,0,1-.77.77H24a.77.77,0,0,1-.78-.77v-7c0-1,.31-4.61-2.74-4.61-2.38,0-2.86,2.43-2.95,3.53V27.7a.77.77,0,0,1-.78.77H13.05a.76.76,0,0,1-.77-.77V12.53a.76.76,0,0,1,.77-.77h3.72a.77.77,0,0,1,.78.77v1.31c.88-1.32,2.18-2.34,5-2.34,6.16,0,6.12,5.76,6.12,8.92V27.7Z"/></svg>